<svg xmlns="http://www.w3.org/2000/svg" xml:space="preserve" viewBox="0 0 250 250"><linearGradient id="a" x1="374.152" x2="616.437" y1="2.887" y2="-205.515" gradientTransform="matrix(.5625 0 0 -.568 -215.025 8.76)" gradientUnits="userSpaceOnUse"><stop offset="0" style="stop-color:#5a9fd4"/><stop offset="1" style="stop-color:#306998"/></linearGradient><path d="M123.5 0C113.3 0 103.6.9 95 2.4c-25.2 4.5-29.8 13.8-29.8 31v22.7h59.6v7.6H42.9c-17.3 0-32.5 10.4-37.2 30.2-5.5 22.7-5.7 36.9 0 60.5C9.9 172 20 184.6 37.4 184.6h20.5v-27.2c0-19.7 17-37 37.2-37h59.5c16.6 0 29.8-13.6 29.8-30.3V33.4c0-16.1-13.6-28.3-29.8-31C144.3.7 133.7 0 123.5 0M91.3 18.3c6.2 0 11.2 5.1 11.2 11.4S97.5 41 91.3 41s-11.2-5.1-11.2-11.3c0-6.3 5-11.4 11.2-11.4" style="fill:url(#a)"/><linearGradient id="b" x1="710.159" x2="623.51" y1="-331.637" y2="-209.217" gradientTransform="matrix(.5625 0 0 -.568 -215.025 8.76)" gradientUnits="userSpaceOnUse"><stop offset="0" style="stop-color:#ffd43b"/><stop offset="1" style="stop-color:#ffe873"/></linearGradient><path d="M191.8 63.7v26.5c0 20.5-17.4 37.8-37.2 37.8H95.1c-16.3 0-29.8 13.9-29.8 30.3V215c0 16.1 14 25.6 29.8 30.3 18.9 5.5 36.9 6.5 59.5 0 15-4.3 29.8-13.1 29.8-30.3v-22.7h-59.5v-7.6h89.3c17.3 0 23.8-12.1 29.8-30.2 6.2-18.7 6-36.6 0-60.5-4.3-17.2-12.5-30.2-29.8-30.2zm-33.5 143.6c6.2 0 11.2 5.1 11.2 11.3 0 6.3-5 11.4-11.2 11.4s-11.2-5.1-11.2-11.4c0-6.2 5.1-11.3 11.2-11.3" style="fill:url(#b)"/></svg>