<svg xmlns="http://www.w3.org/2000/svg" xml:space="preserve" viewBox="0 0 1920 673"><path d="M0 0h1920v673H0z" style="fill:#244d6a"/><path d="M24.71 19.9h40.93v11.51H24.71zm51.17 0h71.64v11.51H75.88zm81.87 0h61.4v11.51h-61.4zm71.63 0h40.93v11.51h-40.93zM24.71 65.95h40.93v11.51H24.71zm51.17 0h10.23v11.51H75.88zm20.47 0h20.47v11.51H96.35zM24.71 112h102.34v11.51H24.71zm112.57 0h10.23v11.51h-10.23zm20.47 0h20.47v11.51h-20.47zM24.71 135.03h30.7v11.51h-30.7zm40.93 0h10.23v11.51H65.64zm20.47 0h20.47v11.51H86.11zm30.7 0h81.87v11.51h-81.87zm-51.17 23.02h40.93v11.51H65.64zm51.17 0h10.23v11.51h-10.23zm20.47 0h20.47v11.51h-20.47zm-71.64 23.03h20.47v11.51H65.64zm30.71 0h61.4v11.51h-61.4zm71.63 0h10.23v11.51h-10.23zm20.47 0h112.57v11.51H188.45zm-81.87 23.02h102.34v11.51H106.58zm112.57 0h10.23v11.51h-10.23zm20.47 0h61.4v11.51h-61.4zM65.64 227.13h30.7v11.51h-30.7zm40.94 0h61.4v11.51h-61.4zm71.63 0h20.47v11.51h-20.47zm30.71 0h20.47v11.51h-20.47zm-102.34 23.02h20.47v11.51h-20.47zm30.7 0h61.4v11.51h-61.4zm71.64 0h20.47v11.51h-20.47zm30.7 0h143.27v11.51H239.62zm-92.11 23.03h143.27v11.51H147.51zm-40.93 23.03h51.17v11.51h-51.17zm40.93 23.02h143.27v11.51H147.51zm-81.87 23.03h173.97v11.51H65.64zm-40.93 46.05h51.17v11.51H24.71zm61.4 0h10.23v11.51H86.11zm20.47 0h102.34v11.51H106.58zm112.57 0h10.23v11.51h-10.23zm20.47 0h122.8v11.51h-122.8zm133.03 0h10.23v11.51h-10.23zm20.47 0h10.23v11.51h-10.23zm20.47 0h10.23v11.51h-10.23zm20.46 0h61.4v11.51h-61.4zM24.71 434.36h30.7v11.51h-30.7zm40.93 0h10.23v11.51H65.64zm20.47 0h20.47v11.51H86.11zm30.7 0h173.97v11.51H116.81zm-51.17 23.02h20.47v11.51H65.64zm30.71 0h10.23v11.51H96.35zm20.46 0h10.23v11.51h-10.23zm-51.17 23.03h122.8v11.51H65.64zm133.04 0h10.23v11.51h-10.23zm20.47 0h10.23v11.51h-10.23zM65.64 503.44h40.93v11.51H65.64zm51.17 0h10.23v11.51h-10.23zm20.47 0h51.17v11.51h-51.17zm-71.64 23.02h71.64v11.51H65.64zm81.87 0h10.23v11.51h-10.23zm20.47 0h10.23v11.51h-10.23zM24.71 572.51h61.4v11.51h-61.4zm71.64 0h20.47v11.51H96.35zm30.7 0H628.5v11.51H127.05zM24.71 618.56h40.93v11.51H24.71zm51.17 0h184.21v11.51H75.88zm194.44 0h40.93v11.51h-40.93zm51.17 0h20.47v11.51h-20.47zm30.7 0h51.17v11.51h-51.17zM65.64 641.59h184.21v11.51H65.64z" style="opacity:.2;fill:#fff"/><path d="M774.44 16.05h271.28v30.52H774.44zm298.41 0h27.13v30.52h-27.13zm54.25 0h162.77v30.52H1127.1zM665.93 77.09h81.38v30.52h-81.38zm108.51 0h162.77v30.52H774.44zm189.89 0h54.26v30.52h-54.26zm81.39 0h54.26v30.52h-54.26zm-271.28 61.04h54.26v30.52h-54.26zm81.38 0h162.77v30.52H855.82zm189.9 0h54.26v30.52h-54.26zm81.38 0h379.79v30.52H1127.1zm-244.15 61.03h379.79v30.52H882.95zM774.44 260.2h135.64v30.52H774.44zm108.51 61.04h379.79v30.52H882.95zm-217.02 61.04h461.18v30.52H665.93zM557.42 504.35h135.64v30.52H557.42zm162.76 0h27.13v30.52h-27.13zm54.26 0h271.28v30.52H774.44zm298.41 0h27.13v30.52h-27.13zm54.25 0h325.54v30.52H1127.1zm352.67 0h27.13v30.52h-27.13zm54.25 0h27.13v30.52h-27.13zm54.26 0h27.13v30.52h-27.13zm54.25 0h162.77v30.52h-162.77zM557.42 626.43h81.38v30.52h-81.38zm108.51 0h27.13v30.52h-27.13zm54.25 0h54.26v30.52h-54.26zm81.39 0h461.18v30.52H801.57z" style="opacity:.05;fill:#fff"/><path d="M405.99 29.29h1109.09v168.83H405.99z" style="fill:none"/><path d="M405.69 376.88v-75.97h13.01v18.73l-.31 10.93h.21q.93-5.625 4.89-8.79c2.64-2.12 6.07-3.17 10.3-3.17 5.62 0 10.11 1.87 13.48 5.62 3.36 3.75 5.05 8.78 5.05 15.09v37.57H439.3v-36.22q0-5.205-2.76-8.01c-1.84-1.87-4.32-2.81-7.44-2.81q-4.89 0-7.65 2.91c-1.84 1.94-2.76 4.72-2.76 8.33v35.8h-13zm79.3 1.04c-5.9 0-10.55-1.54-13.95-4.63s-5.1-7.3-5.1-12.64c0-5.62 1.94-9.97 5.83-13.06 3.88-3.09 9.3-4.63 16.23-4.63h13.74v-4.79c0-2.77-.9-4.92-2.71-6.45-1.8-1.53-4.34-2.29-7.6-2.29-2.98 0-5.43.62-7.34 1.87s-2.97 2.91-3.17 5h-12.38c.28-5.34 2.55-9.63 6.82-12.85 4.27-3.23 9.76-4.84 16.49-4.84 7.08 0 12.66 1.73 16.76 5.2 4.09 3.47 6.14 8.22 6.14 14.26v38.82h-12.59v-9.68h-.21c-.76 3.33-2.64 5.95-5.62 7.86-2.98 1.9-6.77 2.85-11.34 2.85m4.26-9.68q5.52 0 9-2.76c2.32-1.84 3.49-4.28 3.49-7.34v-6.87h-13.42c-2.91 0-5.2.75-6.87 2.24s-2.5 3.52-2.5 6.09c0 2.71.92 4.82 2.76 6.35s4.35 2.29 7.54 2.29m42.98 8.64v-57.24h12.7v10.93h.31c.55-3.75 2.22-6.68 5-8.79 2.77-2.12 6.31-3.17 10.61-3.17 5.9 0 10.62 1.93 14.15 5.78 3.54 3.85 5.31 9.11 5.31 15.77v4.68h-13.63v-3.75c0-3.54-.92-6.3-2.76-8.27-1.84-1.98-4.49-2.97-7.96-2.97-7.15 0-10.72 3.99-10.72 11.97v35.07h-13.01zm62.44 0v-57.24h12.7v10.93h.31c.55-3.75 2.22-6.68 5-8.79 2.77-2.12 6.31-3.17 10.61-3.17 5.9 0 10.62 1.93 14.15 5.78 3.54 3.85 5.31 9.11 5.31 15.77v4.68h-13.63v-3.75c0-3.54-.92-6.3-2.76-8.27-1.84-1.98-4.49-2.97-7.96-2.97-7.15 0-10.72 3.99-10.72 11.97v35.07h-13.01zm60.67 0v-11.76h19.56V331.4h-17.48v-11.76h30.49v45.48h17.59v11.76zm25.19-66.81c-2.64 0-4.72-.68-6.24-2.03-1.53-1.35-2.29-3.17-2.29-5.46s.76-4.11 2.29-5.46 3.61-2.03 6.24-2.03c2.64 0 4.72.68 6.24 2.03 1.53 1.35 2.29 3.17 2.29 5.46s-.76 4.11-2.29 5.46c-1.52 1.35-3.61 2.03-6.24 2.03m33.09 66.81 19.98-29.56-18.63-27.68h14.67l8.85 14.05c.55.83 1.07 1.77 1.56 2.81.48 1.04.83 1.87 1.04 2.5.28-.62.66-1.46 1.14-2.5s.97-1.98 1.46-2.81l8.95-14.05h14.67l-18.63 27.68 19.88 29.56h-14.78l-9.89-15.71c-.56-.83-1.09-1.79-1.61-2.86s-.92-1.93-1.2-2.55q-.42.93-1.14 2.55c-.49 1.08-1.01 2.03-1.56 2.86l-10.09 15.71zm73.26-28.31V336.5h33.3v12.07zm76.91 29.25c-4.37 0-8.22-.68-11.55-2.03s-5.92-3.28-7.75-5.78q-2.76-3.75-2.76-8.85h13.11c0 2.01.82 3.56 2.45 4.63 1.63 1.08 3.83 1.61 6.61 1.61h4.47c3.26 0 5.69-.59 7.28-1.77 1.6-1.18 2.39-2.81 2.39-4.89 0-3.95-2.95-6.38-8.85-7.28l-8.01-1.04c-12-1.73-18-7.46-18-17.17q0-8.115 5.46-12.33c3.64-2.81 8.93-4.21 15.87-4.21h3.95c6.45 0 11.64 1.44 15.56 4.32q5.88 4.32 5.88 11.4h-13.1q0-2.505-2.19-3.9-2.19-1.41-6.24-1.41h-3.95c-5.69 0-8.53 2.05-8.53 6.14 0 3.54 2.53 5.69 7.6 6.45l8.12 1.25c6.45.9 11.26 2.78 14.41 5.62 3.16 2.85 4.73 6.8 4.73 11.86 0 5.48-1.89 9.75-5.67 12.8s-9.35 4.58-16.7 4.58zm44.23-.94-8.74-57.24h10.41l4.79 35.07c.28 2.01.5 4.23.68 6.66.17 2.43.33 4.44.47 6.04h.52c.14-1.6.35-3.59.62-5.98.28-2.39.55-4.63.83-6.71l5.52-35.07h10.82l5.31 35.07c.28 2.01.55 4.25.83 6.71s.48 4.49.62 6.09h.52c.14-1.67.31-3.69.52-6.09.21-2.39.45-4.63.73-6.71l5-35.07h10.09l-8.95 57.24h-13.42l-5-35.28c-.28-1.94-.57-4.11-.88-6.5s-.54-4.35-.68-5.88h-.42c-.21 1.53-.45 3.49-.73 5.88s-.56 4.56-.83 6.5l-5.2 35.28h-13.43zm59.52 0v-11.76h19.57V331.4h-17.48v-11.76h30.49v45.48h17.59v11.76zm25.19-66.81c-2.64 0-4.72-.68-6.24-2.03-1.53-1.35-2.29-3.17-2.29-5.46s.76-4.11 2.29-5.46c1.52-1.35 3.61-2.03 6.24-2.03 2.64 0 4.72.68 6.24 2.03s2.29 3.17 2.29 5.46-.76 4.11-2.29 5.46c-1.52 1.35-3.6 2.03-6.24 2.03m58.38 67.75c-4.37 0-8.22-.68-11.55-2.03s-5.92-3.28-7.75-5.78q-2.76-3.75-2.76-8.85h13.11c0 2.01.82 3.56 2.45 4.63 1.63 1.08 3.83 1.61 6.61 1.61h4.47c3.26 0 5.69-.59 7.28-1.77 1.6-1.18 2.39-2.81 2.39-4.89 0-3.95-2.95-6.38-8.85-7.28l-8.01-1.04c-12-1.73-18-7.46-18-17.17q0-8.115 5.46-12.33c3.64-2.81 8.93-4.21 15.87-4.21h3.96c6.45 0 11.64 1.44 15.56 4.32q5.88 4.32 5.88 11.4h-13.11q0-2.505-2.19-3.9-2.19-1.41-6.24-1.41h-3.95c-5.69 0-8.53 2.05-8.53 6.14 0 3.54 2.53 5.69 7.6 6.45l8.12 1.25c6.45.9 11.26 2.78 14.41 5.62 3.16 2.85 4.73 6.8 4.73 11.86 0 5.48-1.89 9.75-5.67 12.8s-9.35 4.58-16.7 4.58zm62.44 0c-4.37 0-8.22-.68-11.55-2.03s-5.92-3.28-7.75-5.78q-2.76-3.75-2.76-8.85h13.11c0 2.01.82 3.56 2.45 4.63 1.63 1.08 3.83 1.61 6.61 1.61h4.47c3.26 0 5.69-.59 7.28-1.77 1.6-1.18 2.39-2.81 2.39-4.89 0-3.95-2.95-6.38-8.85-7.28l-8.01-1.04c-12-1.73-18-7.46-18-17.17q0-8.115 5.46-12.33c3.64-2.81 8.93-4.21 15.87-4.21h3.96c6.45 0 11.64 1.44 15.56 4.32q5.88 4.32 5.88 11.4h-13.11q0-2.505-2.19-3.9-2.19-1.41-6.24-1.41h-3.95c-5.69 0-8.53 2.05-8.53 6.14 0 3.54 2.53 5.69 7.6 6.45l8.12 1.25c6.45.9 11.26 2.78 14.41 5.62 3.16 2.85 4.73 6.8 4.73 11.86 0 5.48-1.89 9.75-5.67 12.8s-9.35 4.58-16.7 4.58zm47.98-29.25V336.5h33.3v12.07zm56.19 28.31v-75.97h13.01v41.21h9.16l13.95-22.48h14.46l-17.27 27.68 17.59 29.56h-14.78l-13.95-23.73h-9.16v23.73zm62.13 0v-57.24h12.7v10.93h.21q.93-5.625 4.89-8.79c2.64-2.12 6.07-3.17 10.3-3.17 5.62 0 10.11 1.87 13.48 5.62 3.36 3.75 5.05 8.78 5.05 15.09v37.57h-13.01v-36.22q0-5.205-2.76-8.01c-1.84-1.87-4.32-2.81-7.44-2.81q-4.89 0-7.65 2.91c-1.84 1.94-2.76 4.72-2.76 8.33v35.8h-13.01zm62.34 0v-11.76h19.57V331.4h-17.48v-11.76h30.49v45.48h17.59v11.76zm25.18-66.81c-2.64 0-4.72-.68-6.24-2.03-1.53-1.35-2.29-3.17-2.29-5.46s.76-4.11 2.29-5.46 3.61-2.03 6.24-2.03c2.64 0 4.72.68 6.24 2.03 1.53 1.35 2.29 3.17 2.29 5.46s-.76 4.11-2.29 5.46c-1.52 1.35-3.6 2.03-6.24 2.03m50.68 66.81v-39.13h-15.71v-11.76h15.71v-8.64c0-5 1.66-8.98 4.99-11.97 3.33-2.98 7.74-4.47 13.22-4.47h16.75v11.45h-16.44c-1.66 0-3 .47-4.01 1.41s-1.51 2.2-1.51 3.8V326h21.96v11.76h-21.96v39.13h-13zm72.43 1.04c-4.86 0-9.09-.94-12.7-2.81s-6.4-4.49-8.38-7.86c-1.98-3.36-2.97-7.3-2.97-11.81v-14.36c0-4.51.99-8.45 2.97-11.81s4.77-5.98 8.38-7.86c3.61-1.87 7.84-2.81 12.7-2.81 4.79 0 8.97.94 12.54 2.81s6.35 4.49 8.33 7.86 2.97 7.3 2.97 11.81v10.3h-35.28v4.06q0 12.18 11.55 12.18c5.97 0 9.47-1.98 10.51-5.93h12.8c-.97 4.93-3.59 8.86-7.86 11.81s-9.45 4.42-15.56 4.42m-11.45-36.84v2.19l22.69-.1v-2.19c0-3.95-.94-6.99-2.81-9.11s-4.68-3.17-8.43-3.17c-3.82 0-6.68 1.08-8.59 3.23-1.9 2.14-2.86 5.19-2.86 9.15" style="fill:#fff"/></svg>