<svg xmlns="http://www.w3.org/2000/svg" xml:space="preserve" viewBox="0 0 1920 673"><path d="M0 0h1920v673H0z" style="fill:#244d6a"/><path d="M24.7 19.9h40.9v11.5H24.7zm51.2 0h71.6v11.5H75.9zm81.9 0h61.4v11.5h-61.4zm71.6 0h40.9v11.5h-40.9zm-204.7 46h40.9v11.5H24.7zm51.2 0h10.2v11.5H75.9zm20.4 0h20.5v11.5H96.3zM24.7 112H127v11.5H24.7zm112.6 0h10.2v11.5h-10.2zm20.5 0h20.5v11.5h-20.5zM24.7 135h30.7v11.5H24.7zm40.9 0h10.2v11.5H65.6zm20.5 0h20.5v11.5H86.1zm30.7 0h81.9v11.5h-81.9zm-51.2 23.1h40.9v11.5H65.6zm51.2 0H127v11.5h-10.2zm20.5 0h20.5v11.5h-20.5zm-71.7 23h20.5v11.5H65.6zm30.7 0h61.4v11.5H96.3zm71.7 0h10.2v11.5H168zm20.4 0H301v11.5H188.4zm-81.8 23h102.3v11.5H106.6zm112.5 0h10.2v11.5h-10.2zm20.5 0H301v11.5h-61.4zm-174 23h30.7v11.5H65.6zm41 0H168v11.5h-61.4zm71.6 0h20.5v11.5h-20.5zm30.7 0h20.5v11.5h-20.5zm-102.3 23.1H127v11.5h-20.5zm30.7 0h61.4v11.5h-61.4zm71.6 0h20.5v11.5h-20.5zm30.7 0h143.3v11.5H239.6zm-92.1 23h143.3v11.5H147.5zm-40.9 23h51.2v11.5h-51.2zm40.9 23h143.3v11.5H147.5zm-81.9 23.1h174v11.5h-174zm-40.9 46h51.2v11.5H24.7zm61.4 0h10.2v11.5H86.1zm20.5 0h102.3v11.5H106.6zm112.5 0h10.2v11.5h-10.2zm20.5 0h122.8v11.5H239.6zm133 0h10.2v11.5h-10.2zm20.5 0h10.2v11.5h-10.2zm20.5 0h10.2v11.5h-10.2zm20.4 0h61.4v11.5H434zM24.7 434.4h30.7v11.5H24.7zm40.9 0h10.2v11.5H65.6zm20.5 0h20.5v11.5H86.1zm30.7 0h174v11.5h-174zm-51.2 23h20.5v11.5H65.6zm30.7 0h10.2v11.5H96.3zm20.5 0H127v11.5h-10.2zm-51.2 23h122.8v11.5H65.6zm133.1 0h10.2v11.5h-10.2zm20.4 0h10.2v11.5h-10.2zm-153.5 23h40.9V515H65.6zm51.2 0H127V515h-10.2zm20.5 0h51.2V515h-51.2zm-71.7 23.1h71.6V538H65.6zm81.9 0h10.2V538h-10.2zm20.5 0h10.2V538H168zm-143.3 46h61.4V584H24.7zm71.6 0h20.5V584H96.3zm30.8 0h501.5V584H127.1zM24.7 618.6h40.9v11.5H24.7zm51.2 0h184.2v11.5H75.9zm194.4 0h40.9v11.5h-40.9zm51.2 0H342v11.5h-20.5zm30.7 0h51.2v11.5h-51.2zm-286.6 23h184.2v11.5H65.6z" style="opacity:.2;fill:#fff"/><path d="M774.4 16h271.3v30.5H774.4zm298.4 0h27.1v30.5h-27.1zm54.3 0h162.8v30.5h-162.8zM665.9 77.1h81.4v30.5h-81.4zm108.5 0h162.8v30.5H774.4zm189.9 0h54.3v30.5h-54.3zm81.4 0h54.3v30.5h-54.3zm-271.3 61h54.3v30.5h-54.3zm81.4 0h162.8v30.5H855.8zm189.9 0h54.3v30.5h-54.3zm81.4 0h379.8v30.5h-379.8zm-244.2 61.1h379.8v30.5H883zm-108.5 61H910v30.5H774.4zm108.6 61h379.8v30.5H883zm-217.1 61.1h461.2v30.5H665.9zM557.4 504.4H693v30.5H557.4zm162.8 0h27.1v30.5h-27.1zm54.2 0h271.3v30.5H774.4zm298.4 0h27.1v30.5h-27.1zm54.3 0h325.5v30.5h-325.5zm352.7 0h27.1v30.5h-27.1zm54.2 0h27.1v30.5H1534zm54.3 0h27.1v30.5h-27.1zm54.2 0h162.8v30.5h-162.8zm-1085.1 122h81.4V657h-81.4zm108.5 0H693V657h-27.1zm54.3 0h54.3V657h-54.3zm81.4 0h461.2V657H801.6z" style="opacity:5.000000e-02;fill:#fff"/><path d="M406 29.3h1109.1v168.8H406z" style="fill:none"/><path d="M411.7 360.4v-75.2h12.9v18.5l-.3 10.8h.2q.9-5.55 4.8-8.7c2.6-2.1 6-3.1 10.2-3.1 5.6 0 10 1.9 13.3 5.6s5 8.7 5 14.9v37.2H445v-35.8c0-3.4-.9-6.1-2.7-7.9-1.8-1.9-4.3-2.8-7.4-2.8-3.2 0-5.8 1-7.6 2.9s-2.7 4.7-2.7 8.2v35.4zm78.5 1.1c-5.8 0-10.4-1.5-13.8-4.6s-5-7.2-5-12.5c0-5.6 1.9-9.9 5.8-12.9 3.8-3.1 9.2-4.6 16.1-4.6h13.6v-4.7c0-2.7-.9-4.9-2.7-6.4s-4.3-2.3-7.5-2.3c-3 0-5.4.6-7.3 1.9-1.9 1.2-2.9 2.9-3.1 4.9H474c.3-5.3 2.5-9.5 6.7-12.7s9.7-4.8 16.3-4.8c7 0 12.5 1.7 16.6 5.1s6.1 8.1 6.1 14.1v38.4h-12.5v-9.6h-.2c-.8 3.3-2.6 5.9-5.6 7.8-2.9 1.9-6.6 2.9-11.2 2.9m4.2-9.6c3.6 0 6.6-.9 8.9-2.7s3.5-4.2 3.5-7.3v-6.8h-13.3c-2.9 0-5.1.7-6.8 2.2-1.6 1.5-2.5 3.5-2.5 6q0 4.05 2.7 6.3c1.9 1.5 4.4 2.3 7.5 2.3m42.6 8.5v-56.7h12.6v10.8h.3c.5-3.7 2.2-6.6 4.9-8.7s6.2-3.1 10.5-3.1c5.8 0 10.5 1.9 14 5.7s5.3 9 5.3 15.6v4.6h-13.5V325c0-3.5-.9-6.2-2.7-8.2s-4.4-2.9-7.9-2.9c-7.1 0-10.6 3.9-10.6 11.8v34.7zm61.8 0v-56.7h12.6v10.8h.3c.5-3.7 2.2-6.6 4.9-8.7s6.2-3.1 10.5-3.1c5.8 0 10.5 1.9 14 5.7s5.3 9 5.3 15.6v4.6h-13.5V325c0-3.5-.9-6.2-2.7-8.2s-4.4-2.9-7.9-2.9c-7.1 0-10.6 3.9-10.6 11.8v34.7zm60 0v-11.6h19.4v-33.4h-17.3v-11.6h30.2v45h17.4v11.6zm25-66.1c-2.6 0-4.7-.7-6.2-2s-2.3-3.1-2.3-5.4.8-4.1 2.3-5.4 3.6-2 6.2-2 4.7.7 6.2 2 2.3 3.1 2.3 5.4-.8 4.1-2.3 5.4c-1.6 1.4-3.6 2-6.2 2m32.7 66.1 19.8-29.3-18.4-27.4h14.5l8.8 13.9c.5.8 1.1 1.8 1.5 2.8.5 1 .8 1.9 1 2.5.3-.6.7-1.4 1.1-2.5l1.4-2.8 8.9-13.9h14.5l-18.4 27.4 19.7 29.3h-14.6l-9.8-15.6c-.6-.8-1.1-1.8-1.6-2.8-.5-1.1-.9-1.9-1.2-2.5-.3.6-.7 1.5-1.1 2.5-.5 1.1-1 2-1.5 2.8l-10 15.6zm72.5-28v-11.9h33v11.9zm76.1 29c-4.3 0-8.1-.7-11.4-2s-5.9-3.2-7.7-5.7-2.7-5.4-2.7-8.8h13c0 2 .8 3.5 2.4 4.6s3.8 1.6 6.5 1.6h4.4q4.8 0 7.2-1.8t2.4-4.8c0-3.9-2.9-6.3-8.8-7.2l-7.9-1c-11.9-1.7-17.8-7.4-17.8-17 0-5.4 1.8-9.4 5.4-12.2s8.8-4.2 15.7-4.2h3.9c6.4 0 11.5 1.4 15.4 4.3s5.8 6.6 5.8 11.3h-13c0-1.6-.7-2.9-2.2-3.9-1.4-.9-3.5-1.4-6.2-1.4h-3.9c-5.6 0-8.4 2-8.4 6.1 0 3.5 2.5 5.6 7.5 6.4l8 1.2c6.4.9 11.1 2.7 14.3 5.6 3.1 2.8 4.7 6.7 4.7 11.7 0 5.4-1.9 9.6-5.6 12.7-3.7 3-9.3 4.5-16.5 4.5zm43.8-1-8.7-56.7h10.3l4.7 34.7c.3 2 .5 4.2.7 6.6s.3 4.4.5 6h.5c.1-1.6.3-3.6.6-5.9.3-2.4.5-4.6.8-6.6l5.5-34.7h10.7l5.3 34.7c.3 2 .5 4.2.8 6.6q.45 3.6.6 6h.5c.1-1.6.3-3.7.5-6 .2-2.4.4-4.6.7-6.6l4.9-34.7h10l-8.9 56.7h-13.3l-4.9-34.9c-.3-1.9-.6-4.1-.9-6.4s-.5-4.3-.7-5.8h-.4c-.2 1.5-.4 3.5-.7 5.8-.3 2.4-.6 4.5-.8 6.4l-5.1 34.9h-13.2zm58.9 0v-11.6h19.4v-33.4h-17.3v-11.6h30.2v45h17.4v11.6zm25-66.1c-2.6 0-4.7-.7-6.2-2s-2.3-3.1-2.3-5.4.8-4.1 2.3-5.4 3.6-2 6.2-2 4.7.7 6.2 2 2.3 3.1 2.3 5.4-.8 4.1-2.3 5.4c-1.6 1.4-3.6 2-6.2 2m57.7 67.1c-4.3 0-8.1-.7-11.4-2s-5.9-3.2-7.7-5.7-2.7-5.4-2.7-8.8h13c0 2 .8 3.5 2.4 4.6s3.8 1.6 6.5 1.6h4.4q4.8 0 7.2-1.8t2.4-4.8c0-3.9-2.9-6.3-8.8-7.2l-7.9-1c-11.9-1.7-17.8-7.4-17.8-17 0-5.4 1.8-9.4 5.4-12.2s8.8-4.2 15.7-4.2h3.9c6.4 0 11.5 1.4 15.4 4.3s5.8 6.6 5.8 11.3h-13c0-1.6-.7-2.9-2.2-3.9-1.4-.9-3.5-1.4-6.2-1.4h-3.9c-5.6 0-8.4 2-8.4 6.1 0 3.5 2.5 5.6 7.5 6.4l8 1.2c6.4.9 11.1 2.7 14.3 5.6 3.1 2.8 4.7 6.7 4.7 11.7 0 5.4-1.9 9.6-5.6 12.7-3.7 3-9.3 4.5-16.5 4.5zm61.8 0c-4.3 0-8.1-.7-11.4-2s-5.9-3.2-7.7-5.7-2.7-5.4-2.7-8.8h13c0 2 .8 3.5 2.4 4.6s3.8 1.6 6.5 1.6h4.4q4.8 0 7.2-1.8t2.4-4.8c0-3.9-2.9-6.3-8.8-7.2l-7.9-1c-11.9-1.7-17.8-7.4-17.8-17 0-5.4 1.8-9.4 5.4-12.2s8.8-4.2 15.7-4.2h3.9c6.4 0 11.5 1.4 15.4 4.3s5.8 6.6 5.8 11.3h-13c0-1.6-.7-2.9-2.2-3.9-1.4-.9-3.5-1.4-6.2-1.4h-3.9c-5.6 0-8.4 2-8.4 6.1 0 3.5 2.5 5.6 7.5 6.4l8 1.2c6.4.9 11.1 2.7 14.3 5.6 3.1 2.8 4.7 6.7 4.7 11.7 0 5.4-1.9 9.6-5.6 12.7-3.7 3-9.3 4.5-16.5 4.5zm47.5-29v-11.9h33v11.9zm55.6 28v-75.2h12.9V326h9.1l13.8-22.2h14.3l-17.1 27.4 17.4 29.3h-14.6l-13.8-23.5h-9.1v23.5h-12.9zm61.5 0v-56.7h12.6v10.8h.2q.9-5.55 4.8-8.7c2.6-2.1 6-3.1 10.2-3.1 5.6 0 10 1.9 13.3 5.6s5 8.7 5 14.9v37.2h-12.9v-35.8c0-3.4-.9-6.1-2.7-7.9-1.8-1.9-4.3-2.8-7.4-2.8-3.2 0-5.8 1-7.6 2.9s-2.7 4.7-2.7 8.2v35.4zm61.7 0v-11.6h19.4v-33.4h-17.3v-11.6h30.2v45h17.4v11.6zm24.9-66.1c-2.6 0-4.7-.7-6.2-2s-2.3-3.1-2.3-5.4.8-4.1 2.3-5.4 3.6-2 6.2-2 4.7.7 6.2 2 2.3 3.1 2.3 5.4-.8 4.1-2.3 5.4c-1.5 1.4-3.5 2-6.2 2m50.2 66.1v-38.7h-15.6v-11.6h15.6v-8.5c0-4.9 1.6-8.9 4.9-11.8 3.3-3 7.7-4.4 13.1-4.4h16.6v11.3H1432c-1.6 0-3 .5-4 1.4s-1.5 2.2-1.5 3.8v8.3h21.7v11.6h-21.7v38.7h-12.8zm71.7 1.1c-4.8 0-9-.9-12.6-2.8s-6.3-4.4-8.3-7.8c-2-3.3-2.9-7.2-2.9-11.7V325c0-4.5 1-8.4 2.9-11.7 2-3.3 4.7-5.9 8.3-7.8s7.8-2.8 12.6-2.8c4.7 0 8.9.9 12.4 2.8s6.3 4.4 8.2 7.8c2 3.3 2.9 7.2 2.9 11.7v10.2H1474v4c0 8 3.8 12.1 11.4 12.1 5.9 0 9.4-2 10.4-5.9h12.7q-1.5 7.35-7.8 11.7c-4.1 2.9-9.3 4.4-15.3 4.4m-11.3-36.5v2.2l22.5-.1v-2.2c0-3.9-.9-6.9-2.8-9s-4.6-3.1-8.3-3.1c-3.8 0-6.6 1.1-8.5 3.2-2 2.1-2.9 5.1-2.9 9" style="fill:#fff"/></svg>