<svg xmlns="http://www.w3.org/2000/svg" xml:space="preserve" viewBox="0 0 1920 673"><path d="M0 0h1920v673H0z" style="fill:#244d6a"/><path d="M24.7 19.9h40.9v11.5H24.7zm51.2 0h71.6v11.5H75.9zm81.9 0h61.4v11.5h-61.4zm71.6 0h40.9v11.5h-40.9zm-204.7 46h40.9v11.5H24.7zm51.2 0h10.2v11.5H75.9zm20.4 0h20.5v11.5H96.3zM24.7 112H127v11.5H24.7zm112.6 0h10.2v11.5h-10.2zm20.5 0h20.5v11.5h-20.5zM24.7 135h30.7v11.5H24.7zm40.9 0h10.2v11.5H65.6zm20.5 0h20.5v11.5H86.1zm30.7 0h81.9v11.5h-81.9zm-51.2 23.1h40.9v11.5H65.6zm51.2 0H127v11.5h-10.2zm20.5 0h20.5v11.5h-20.5zm-71.7 23h20.5v11.5H65.6zm30.7 0h61.4v11.5H96.3zm71.7 0h10.2v11.5H168zm20.4 0H301v11.5H188.4zm-81.8 23h102.3v11.5H106.6zm112.5 0h10.2v11.5h-10.2zm20.5 0H301v11.5h-61.4zm-174 23h30.7v11.5H65.6zm41 0H168v11.5h-61.4zm71.6 0h20.5v11.5h-20.5zm30.7 0h20.5v11.5h-20.5zm-102.3 23.1H127v11.5h-20.5zm30.7 0h61.4v11.5h-61.4zm71.6 0h20.5v11.5h-20.5zm30.7 0h143.3v11.5H239.6zm-92.1 23h143.3v11.5H147.5zm-40.9 23h51.2v11.5h-51.2zm40.9 23h143.3v11.5H147.5zm-81.9 23.1h174v11.5h-174zm-40.9 46h51.2v11.5H24.7zm61.4 0h10.2v11.5H86.1zm20.5 0h102.3v11.5H106.6zm112.5 0h10.2v11.5h-10.2zm20.5 0h122.8v11.5H239.6zm133 0h10.2v11.5h-10.2zm20.5 0h10.2v11.5h-10.2zm20.5 0h10.2v11.5h-10.2zm20.4 0h61.4v11.5H434zM24.7 434.4h30.7v11.5H24.7zm40.9 0h10.2v11.5H65.6zm20.5 0h20.5v11.5H86.1zm30.7 0h174v11.5h-174zm-51.2 23h20.5v11.5H65.6zm30.7 0h10.2v11.5H96.3zm20.5 0H127v11.5h-10.2zm-51.2 23h122.8v11.5H65.6zm133.1 0h10.2v11.5h-10.2zm20.4 0h10.2v11.5h-10.2zm-153.5 23h40.9V515H65.6zm51.2 0H127V515h-10.2zm20.5 0h51.2V515h-51.2zm-71.7 23.1h71.6V538H65.6zm81.9 0h10.2V538h-10.2zm20.5 0h10.2V538H168zm-143.3 46h61.4V584H24.7zm71.6 0h20.5V584H96.3zm30.8 0h501.5V584H127.1zM24.7 618.6h40.9v11.5H24.7zm51.2 0h184.2v11.5H75.9zm194.4 0h40.9v11.5h-40.9zm51.2 0H342v11.5h-20.5zm30.7 0h51.2v11.5h-51.2zm-286.6 23h184.2v11.5H65.6z" style="opacity:.2;fill:#fff"/><path d="M774.4 16h271.3v30.5H774.4zm298.4 0h27.1v30.5h-27.1zm54.3 0h162.8v30.5h-162.8zM665.9 77.1h81.4v30.5h-81.4zm108.5 0h162.8v30.5H774.4zm189.9 0h54.3v30.5h-54.3zm81.4 0h54.3v30.5h-54.3zm-271.3 61h54.3v30.5h-54.3zm81.4 0h162.8v30.5H855.8zm189.9 0h54.3v30.5h-54.3zm81.4 0h379.8v30.5h-379.8zm-244.2 61.1h379.8v30.5H883zm-108.5 61H910v30.5H774.4zm108.6 61h379.8v30.5H883zm-217.1 61.1h461.2v30.5H665.9zM557.4 504.4H693v30.5H557.4zm162.8 0h27.1v30.5h-27.1zm54.2 0h271.3v30.5H774.4zm298.4 0h27.1v30.5h-27.1zm54.3 0h325.5v30.5h-325.5zm352.7 0h27.1v30.5h-27.1zm54.2 0h27.1v30.5H1534zm54.3 0h27.1v30.5h-27.1zm54.2 0h162.8v30.5h-162.8zm-1085.1 122h81.4V657h-81.4zm108.5 0H693V657h-27.1zm54.3 0h54.3V657h-54.3zm81.4 0h461.2V657H801.6z" style="opacity:5.000000e-02;fill:#fff"/><path d="M406 29.3h1109.1v168.8H406z" style="fill:none"/><path d="M540.2 376.5v-75.2h12.9v18.5l-.3 10.5c.7-3.6 2.4-6.4 5-8.4 2.7-2.1 6.1-3.1 10.2-3.1 5.6 0 10 1.9 13.3 5.6s5 8.7 5 14.9v37.2h-12.9v-35.6q0-5.25-2.7-8.1c-1.8-1.9-4.3-2.8-7.4-2.8-3.2 0-5.8 1-7.6 2.9s-2.7 4.7-2.7 8.2v35.4zm78.5 1c-5.8 0-10.3-1.6-13.6-4.9s-5-7.5-5-12.8c0-5.5 1.9-9.9 5.7-13.1 3.8-3.3 9-4.9 15.6-4.9h13.8v-4c0-5.7-3.3-8.5-10-8.5q-4.5 0-7.2 1.8c-1.8 1.2-2.8 2.8-3 4.9h-12.4c.3-5.1 2.4-9.2 6.4-12.4s9.4-4.7 16.2-4.7c7.2 0 12.8 1.7 16.8 5 4 3.4 6 8.1 6 14.2v38.4h-12.6v-10.6c-.5 3.6-2.2 6.5-5.2 8.5-2.9 2.1-6.8 3.1-11.5 3.1m4.1-10.5c3.8 0 6.8-.9 9-2.8s3.3-4.3 3.3-7.4v-6.7h-13.2c-2.8 0-5 .8-6.7 2.4-1.6 1.6-2.5 3.6-2.5 6.1s.9 4.6 2.6 6.1c1.8 1.5 4.3 2.3 7.5 2.3m43.1 9.5v-56.7h12.6v11c.7-3.7 2.4-6.6 5.1-8.8s6.2-3.2 10.6-3.2c5.8 0 10.3 1.9 13.5 5.6q4.8 5.55 4.8 15.6v5.4h-12.9v-4.7c0-3.4-.9-6.1-2.7-7.9s-4.3-2.7-7.6-2.7c-3.4 0-6 1-7.8 3.1s-2.7 5-2.7 8.8v34.7h-12.9zm61.8 0v-56.7h12.6v11c.7-3.7 2.4-6.6 5.1-8.8s6.2-3.2 10.6-3.2c5.8 0 10.3 1.9 13.5 5.6q4.8 5.55 4.8 15.6v5.4h-12.9v-4.7c0-3.4-.9-6.1-2.7-7.9s-4.3-2.7-7.6-2.7c-3.4 0-6 1-7.8 3.1s-2.7 5-2.7 8.8v34.7h-12.9zm59.6 0v-11.6h19.4v-33.4h-17.3v-11.6h30.2v45H837v11.6zm24.9-66.2c-2.6 0-4.7-.7-6.2-2s-2.3-3.1-2.3-5.4.8-4.1 2.3-5.4 3.6-2 6.2-2 4.7.7 6.2 2 2.3 3.1 2.3 5.4-.8 4.1-2.3 5.4c-1.5 1.4-3.5 2-6.2 2m32.8 66.2 19.8-29.3-18.4-27.4h14.5l8.8 13.9c.5.8 1.1 1.8 1.5 2.8.5 1 .8 1.9 1 2.5.3-.6.6-1.4 1.1-2.5.4-1 .9-2 1.5-2.8l8.8-13.9h14.6l-18.4 27.4 19.7 29.3h-14.6l-9.8-15.6c-.6-.8-1.1-1.8-1.6-2.8-.5-1.1-.9-1.9-1.2-2.5-.3.6-.7 1.5-1.1 2.5-.5 1.1-1 2-1.5 2.8l-9.9 15.6zm72.5-28.1v-11.9h33v11.9zm75.9 29c-6.7 0-12.1-1.5-16-4.6s-5.9-7.2-5.9-12.4h12.7c0 2.2.8 3.9 2.4 5 1.6 1.2 3.9 1.8 6.7 1.8h4.5q4.65 0 7.2-1.8c1.7-1.2 2.5-2.8 2.5-5 0-2.1-.6-3.6-1.8-4.6s-3-1.7-5.4-2l-14.1-1.9c-4.5-.6-8-2.4-10.5-5.3-2.4-2.9-3.7-6.6-3.7-11.2q0-8.1 5.4-12.3c3.6-2.8 8.7-4.3 15.5-4.3h4.7c6.3 0 11.4 1.4 15.2 4.3s5.8 6.7 6 11.5H1006c-.1-1.8-.9-3.2-2.4-4.3s-3.5-1.6-6.1-1.6h-4.7c-2.7 0-4.8.6-6.3 1.7s-2.2 2.7-2.2 4.6c0 1.7.5 3 1.6 3.8s2.6 1.3 4.7 1.5l13.3 1.9c5.2.6 9.1 2.5 11.8 5.5 2.6 3.1 4 7.2 4 12.3 0 5.5-1.9 9.7-5.6 12.7s-9.2 4.5-16.4 4.5h-4.3zm43.8-.9-8.9-56.7h10.2l5 34.7c.3 2.1.5 4.4.7 6.9s.4 4.5.5 6.2c.1-1.6.2-3.7.4-6.2s.5-4.8.9-6.9l6.2-34.7h10.7l6 34.7c.4 2.1.7 4.4 1 7 .2 2.5.4 4.6.6 6.2.1-1.6.3-3.7.5-6.2s.4-4.8.8-7l5.2-34.7h9.9l-9.1 56.7h-13.3l-5.4-34.9c-.3-1.9-.7-4.1-.9-6.6-.3-2.5-.5-4.5-.6-6.1-.1 1.6-.3 3.6-.6 6.1s-.7 4.7-.9 6.6l-5.6 34.9zm59.1 0v-11.6h19.4v-33.4h-17.3v-11.6h30.2v45h17.4v11.6zm24.9-66.2c-2.6 0-4.7-.7-6.2-2s-2.3-3.1-2.3-5.4.8-4.1 2.3-5.4 3.6-2 6.2-2 4.7.7 6.2 2 2.3 3.1 2.3 5.4-.8 4.1-2.3 5.4c-1.5 1.4-3.6 2-6.2 2m57.6 67.1c-6.7 0-12.1-1.5-16-4.6s-5.9-7.2-5.9-12.4h12.7c0 2.2.8 3.9 2.4 5 1.6 1.2 3.9 1.8 6.7 1.8h4.5q4.65 0 7.2-1.8c1.7-1.2 2.5-2.8 2.5-5 0-2.1-.6-3.6-1.8-4.6s-3-1.7-5.4-2l-14.1-1.9c-4.5-.6-8-2.4-10.5-5.3-2.4-2.9-3.7-6.6-3.7-11.2q0-8.1 5.4-12.3c3.6-2.8 8.7-4.3 15.4-4.3h4.7c6.3 0 11.4 1.4 15.2 4.3s5.8 6.7 6 11.5h-12.8c-.1-1.8-.9-3.2-2.4-4.3s-3.5-1.6-6.1-1.6h-4.7c-2.7 0-4.8.6-6.3 1.7-1.4 1.1-2.2 2.7-2.2 4.6 0 1.7.5 3 1.6 3.8s2.6 1.3 4.7 1.5l13.3 1.9c5.2.6 9.1 2.5 11.8 5.5 2.6 3.1 4 7.2 4 12.3 0 5.5-1.9 9.7-5.6 12.7s-9.2 4.5-16.4 4.5h-4.2zm61.8 0c-6.7 0-12.1-1.5-16-4.6s-5.9-7.2-5.9-12.4h12.7c0 2.2.8 3.9 2.4 5 1.6 1.2 3.9 1.8 6.7 1.8h4.5q4.65 0 7.2-1.8c1.7-1.2 2.5-2.8 2.5-5 0-2.1-.6-3.6-1.8-4.6s-3-1.7-5.4-2l-14.1-1.9c-4.5-.6-8-2.4-10.5-5.3-2.4-2.9-3.7-6.6-3.7-11.2q0-8.1 5.4-12.3c3.6-2.8 8.7-4.3 15.4-4.3h4.7c6.3 0 11.4 1.4 15.2 4.3s5.8 6.7 6 11.5h-12.8c-.1-1.8-.9-3.2-2.4-4.3s-3.5-1.6-6.1-1.6h-4.7c-2.7 0-4.8.6-6.3 1.7-1.4 1.1-2.2 2.7-2.2 4.6 0 1.7.5 3 1.6 3.8s2.6 1.3 4.7 1.5l13.3 1.9c5.2.6 9.1 2.5 11.8 5.5 2.6 3.1 4 7.2 4 12.3 0 5.5-1.9 9.7-5.6 12.7s-9.2 4.5-16.4 4.5h-4.2zm47.7-29v-11.9h33v11.9zm55.8 28.1v-75.2h12.9v40.8h9.1l13.5-22.2h14.3l-16.8 27.4 17.4 29.3h-14.6l-13.8-23.5h-9.1v23.5h-12.9zm61.3 0v-56.7h12.6v10.6c.7-3.6 2.4-6.4 5-8.5 2.7-2.1 6.1-3.1 10.2-3.1 5.6 0 10 1.9 13.3 5.6s5 8.7 5 14.9v37.2h-12.9v-35.6q0-5.25-2.7-8.1c-1.8-1.9-4.3-2.8-7.4-2.8-3.2 0-5.8 1-7.6 2.9s-2.7 4.7-2.7 8.2v35.4zm61.7 0v-11.6h19.4v-33.4h-17.3v-11.6h30.2v45h17.4v11.6zm24.9-66.2c-2.6 0-4.7-.7-6.2-2s-2.3-3.1-2.3-5.4.8-4.1 2.3-5.4 3.6-2 6.2-2 4.7.7 6.2 2 2.3 3.1 2.3 5.4-.8 4.1-2.3 5.4c-1.5 1.4-3.6 2-6.2 2m49.7 66.2v-37.3h-15.6v-11.6h15.6v-10c0-4.9 1.6-8.9 4.9-11.8 3.3-3 7.7-4.4 13.1-4.4h16.6v11.3H1560c-1.6 0-3 .5-4 1.4s-1.5 2.2-1.5 3.8v9.8h21.7v11.6h-21.7v37.3h-12.8zm72.2 1c-4.8 0-9-.9-12.6-2.8s-6.3-4.5-8.3-7.9-2.9-7.4-2.9-12v-13.4c0-4.6 1-8.6 2.9-12s4.7-6 8.3-7.9 7.8-2.8 12.6-2.8c4.7 0 8.9.9 12.4 2.8s6.3 4.4 8.2 7.8c2 3.3 2.9 7.2 2.9 11.7v10.3h-35v3.9q0 5.7 3 8.7c2 2 4.8 2.9 8.4 2.9 2.7 0 5-.5 6.8-1.4 1.9-.9 3-2.3 3.3-4.1h12.8c-.9 4.9-3.4 8.8-7.6 11.7-4.1 3-9.2 4.5-15.2 4.5m-11.5-36.5v2l22.7-.1v-2c0-3.9-1-6.9-2.9-9.1-1.9-2.1-4.7-3.2-8.3-3.2-3.8 0-6.6 1.1-8.5 3.2-2 2.3-3 5.3-3 9.2M455 318.8c7.5 30.6-5.2 62.7-31.4 79.9L399.3 343 376 353.1l24.2 55.7c-30.5 7.5-62.6-5.2-79.9-31.4l-23.6 10.3c25.3 42.7 79 60.8 125.8 40.6 46.7-20.2 70-71.9 56.2-119.6zm-112.3-74.1c-46.6 20.3-70 72-56.2 119.6l23.6-10.3c-7.4-30.4 5.2-62.6 31.5-79.9l24.2 55.7 23.3-10.1L365 264c30.5-7.5 62.6 5.2 79.9 31.4l23.6-10.3c-25.4-42.5-79-60.6-125.8-40.4" style="fill:#fff"/></svg>